<svg version="1.1" id="Layer_1" xmlns="http://www.w3.org/2000/svg" xmlns:xlink="http://www.w3.org/1999/xlink" x="0px" y="0px"
	 width="100%" viewBox="0 0 566 351" enable-background="new 0 0 566 351" xml:space="preserve">
<path fill="#000000" opacity="1.000000" stroke="none" 
	d="
M566.675293,303.770935 
	C567.000000,318.656830 566.869751,333.315735 567.098206,347.968994 
	C567.150574,351.330261 566.522034,352.103271 563.034729,352.099274 
	C456.939392,351.977509 350.843842,352.000000 244.748352,352.000000 
	C164.968536,352.000000 85.188644,351.963593 5.409090,352.108734 
	C1.462040,352.115906 0.827195,351.008667 0.908146,347.412842 
	C1.159242,336.259277 1.000000,325.096527 1.000000,313.468658 
	C3.101110,311.808594 3.699908,313.486267 4.179918,314.845215 
	C8.457362,326.955078 17.805988,332.519501 29.787867,334.201508 
	C38.079487,335.365509 46.474106,335.350311 54.204651,331.377594 
	C61.389908,327.685089 66.331268,322.442383 66.759254,313.634583 
	C67.236908,303.804871 63.643227,296.502014 55.144627,291.580353 
	C48.746460,287.875122 41.708504,285.789917 34.753033,283.498199 
	C30.948128,282.244568 27.176056,280.908569 23.827436,278.657196 
	C18.288420,274.933197 16.011271,270.008331 17.288788,264.724518 
	C18.849644,258.268829 24.145365,253.409714 30.484823,252.829147 
	C34.132587,252.495087 37.834896,252.382355 41.459518,252.846146 
	C48.940521,253.803391 54.015057,257.861084 56.060913,265.268890 
	C56.674812,267.491760 57.371159,269.243805 60.083210,269.629974 
	C65.798759,270.443756 67.409798,268.917267 65.686684,263.459442 
	C62.056000,251.959625 53.435287,246.483795 42.059303,244.747574 
	C33.407375,243.427124 25.076422,244.563217 17.538872,249.277451 
	C2.951645,258.400787 2.704551,276.296204 16.910261,286.015320 
	C24.477722,291.192749 33.392670,293.061218 41.742001,296.316406 
	C44.222736,297.283569 46.721516,298.153137 49.086563,299.424469 
	C54.677795,302.430084 57.376846,307.092560 56.850460,313.333801 
	C56.295990,319.907959 52.210094,324.010406 46.179092,325.813538 
	C37.897572,328.289520 29.747696,327.702118 21.993410,323.459290 
	C18.128922,321.344788 15.225207,318.384705 14.330921,314.107941 
	C13.495655,310.113403 11.275822,309.020996 7.584584,309.292786 
	C5.616310,309.437775 3.629905,310.005585 1.316860,309.227692 
	C1.000000,207.704575 1.016797,106.409119 0.922287,5.113774 
	C0.919324,1.938055 1.225626,0.890152 4.883377,0.892553 
	C190.980331,1.014728 377.077393,1.015968 563.174377,0.887086 
	C566.950439,0.884471 567.070740,2.115109 567.068115,5.171483 
	C566.985046,101.801826 567.000000,198.432266 567.000000,295.531342 
	C564.159973,296.994324 564.054626,294.746979 563.783508,293.084381 
	C563.245361,289.784912 562.604248,286.525482 561.463806,283.377686 
	C555.558594,267.077484 540.660522,264.412018 527.963562,269.126862 
	C515.784546,273.649384 510.316162,283.726929 509.391846,296.361908 
	C509.137115,299.843689 509.338379,303.358459 509.358246,306.858093 
	C509.440308,321.331268 522.652771,335.347778 537.612122,334.801453 
	C545.762695,334.503784 553.179382,333.362091 559.146973,327.375336 
	C560.795837,325.721130 562.802551,324.034180 560.691467,321.437988 
	C558.434143,318.661957 556.399841,320.108887 554.323120,321.854462 
	C548.099487,327.085358 541.028076,328.380646 533.231323,326.295929 
	C525.925049,324.342438 519.130371,315.580475 519.072449,308.036072 
	C519.054321,305.668213 519.997375,304.229279 522.404785,303.870026 
	C523.231445,303.746674 524.060913,303.680511 524.894226,303.676270 
	C538.712891,303.606110 552.532227,303.732697 566.675293,303.770935 
z"/>
<path fill="#FFFFFE" opacity="1.000000" stroke="none" 
	d="
M1.000000,309.399994 
	C2.580250,310.329224 3.025805,308.141876 4.217589,307.926941 
	C10.838810,306.732880 14.269370,308.225861 15.815844,314.468231 
	C17.399973,320.862579 22.628490,323.081268 27.542311,324.592834 
	C35.019741,326.893005 42.739799,326.776489 50.048470,322.607635 
	C54.315231,320.173859 55.684910,316.139343 55.758381,312.209412 
	C55.835999,308.057465 54.426331,303.842560 49.968536,301.379272 
	C42.336777,297.162109 33.864037,295.258118 25.857470,292.090179 
	C18.672813,289.247467 12.073083,285.660553 8.052163,278.919403 
	C1.158412,267.361847 6.075947,252.382950 19.734972,246.321503 
	C32.276264,240.756073 45.371143,241.101151 57.200123,249.103729 
	C63.340523,253.257828 66.806213,259.511322 67.997101,266.906250 
	C68.486496,269.945160 67.601227,271.590118 64.117599,271.043457 
	C62.492294,270.788422 60.762272,270.794647 59.135376,271.044678 
	C56.208961,271.494446 55.433273,269.689117 55.015114,267.468872 
	C53.296688,258.344879 48.166172,254.008484 39.003998,254.000534 
	C36.172951,253.998077 33.334297,253.865845 30.512291,254.025604 
	C22.124718,254.500473 15.490952,264.678375 19.115351,272.000153 
	C21.538107,276.894409 26.416224,279.238312 31.402843,280.974976 
	C39.408710,283.763062 47.589531,286.023926 55.177654,289.976440 
	C65.035004,295.110962 69.730667,304.882294 67.993401,317.390320 
	C67.077057,323.987854 57.796494,333.589905 50.016994,334.863617 
	C38.219208,336.795227 26.299723,337.513519 15.519771,330.788361 
	C9.210041,326.851929 3.855534,321.939117 2.909338,313.849548 
	C2.848283,313.327545 2.097925,312.886139 1.334111,312.703613 
	C1.000000,311.933319 1.000000,310.866669 1.000000,309.399994 
z"/>
<path fill="#FFFFFE" opacity="1.000000" stroke="none" 
	d="
M567.000000,303.555847 
	C560.333740,305.833496 553.522766,304.826721 546.777954,304.962280 
	C538.786560,305.122864 530.789490,305.007172 522.794922,304.993927 
	C521.277527,304.991425 519.530945,304.779541 520.024658,307.144440 
	C521.301208,313.258820 523.174744,319.229126 528.694031,322.853119 
	C535.956177,327.621552 547.310486,327.545044 554.365662,319.933807 
	C557.704163,316.332184 559.378296,318.048920 562.074097,320.441437 
	C565.405640,323.398071 563.437317,325.007385 561.350586,327.214417 
	C551.540649,337.590240 539.314941,338.180359 527.057739,334.263428 
	C516.281372,330.819702 507.781830,318.759552 507.847412,305.320770 
	C507.896912,295.174957 508.706024,285.735016 514.895630,277.076508 
	C524.046143,264.276154 544.428589,262.240265 555.190308,271.184723 
	C561.383911,276.332458 564.130859,283.995087 564.996521,292.100494 
	C565.164978,293.678314 564.421814,295.506531 566.637634,296.301453 
	C567.000000,298.370575 567.000000,300.741119 567.000000,303.555847 
z"/>
<path fill="#FF1D00" opacity="1.000000" stroke="none" 
	d="
M213.299255,25.695518 
	C230.455383,49.179459 223.952042,83.188995 201.332321,99.337563 
	C184.437073,111.399338 166.246201,113.541100 147.495773,105.570763 
	C129.365158,97.863884 116.207596,79.171509 115.799820,58.658169 
	C115.463531,41.740734 120.854340,27.731316 133.123337,16.522865 
	C142.245819,8.188945 153.006668,3.534183 165.764206,2.828564 
	C181.290085,1.969827 194.371353,6.921592 206.037155,16.601910 
	C208.964005,19.030607 211.085342,22.182430 213.299255,25.695518 
z"/>
<path fill="#00B0FF" opacity="1.000000" stroke="none" 
	d="
M372.000000,56.982277 
	C373.119873,77.847504 356.782104,100.895653 336.410156,107.196793 
	C318.734436,112.663979 302.358368,110.756882 287.515259,100.562630 
	C276.169434,92.770340 268.622253,81.584602 266.001953,67.580742 
	C262.551575,49.140606 267.227386,32.798660 279.713013,19.176128 
	C285.548157,12.809650 293.086700,8.173322 301.749969,5.563170 
	C318.576904,0.493404 334.288727,2.320086 348.770386,12.323878 
	C364.149323,22.947510 372.286438,37.551548 372.000000,56.982277 
z"/>
<path fill="#FFCD00" opacity="1.000000" stroke="none" 
	d="
M444.733948,122.350754 
	C455.863922,154.510757 439.560394,187.649734 404.970642,194.609375 
	C386.942749,198.236694 369.464355,193.541183 356.296265,179.579056 
	C344.344025,166.906036 339.125244,151.788193 341.815308,133.919403 
	C344.960846,113.024994 356.764587,98.758804 375.566071,91.570480 
	C393.542786,84.697456 413.355103,86.645523 430.239716,101.674782 
	C436.640320,107.372078 441.734619,113.844597 444.733948,122.350754 
z"/>
<path fill="#0AB50C" opacity="1.000000" stroke="none" 
	d="
M241.030624,89.000000 
	C266.391632,87.200317 289.304199,107.354637 294.621063,129.942551 
	C301.631134,159.723938 280.945496,191.145493 250.752319,195.212677 
	C232.877991,197.620453 217.671082,192.865173 204.909012,181.044495 
	C195.126236,171.983337 189.535248,160.283371 188.951355,146.516342 
	C188.502106,135.924347 189.868668,125.768829 195.047150,116.403168 
	C199.332535,108.652748 205.008835,101.880577 212.580078,97.329399 
	C221.074158,92.223518 230.152878,88.161308 241.030624,89.000000 
z"/>
<path fill="#FFFFFE" opacity="1.000000" stroke="none" 
	d="
M80.613617,285.867828 
	C87.590820,268.636017 101.863640,262.953979 117.910263,267.097717 
	C128.189835,269.752197 132.093430,278.464691 134.970245,287.618530 
	C136.423904,292.243958 135.783569,297.076935 136.063660,301.821716 
	C136.228134,304.607849 135.133957,305.070587 132.665283,305.049347 
	C120.171547,304.941895 107.673515,305.150818 95.183418,304.912262 
	C91.201256,304.836182 90.405632,306.029266 91.246071,309.722290 
	C94.662430,324.734222 105.598816,327.911407 117.868843,324.877472 
	C120.990784,324.105499 123.342659,321.416321 125.531860,318.970001 
	C129.910553,314.077026 131.217636,320.298309 133.665634,321.489319 
	C136.644592,322.938660 134.468643,324.898590 132.967529,326.549500 
	C123.255035,337.231506 110.894737,338.119110 98.331047,334.495880 
	C86.770355,331.161896 81.238220,321.969116 78.821136,310.277557 
	C77.090645,301.907104 78.696617,294.116608 80.613617,285.867828 
z"/>
<path fill="#FFFFFE" opacity="1.000000" stroke="none" 
	d="
M289.237366,275.349304 
	C300.248413,263.455170 318.460175,263.629944 327.536224,270.794464 
	C334.124298,275.995026 336.585907,283.214111 337.913208,290.851807 
	C340.365479,304.963104 340.153168,305.000000 325.955811,305.000000 
	C316.299347,305.000000 306.640686,305.119354 296.987427,304.943085 
	C292.949951,304.869324 292.479126,305.681335 293.748779,309.718750 
	C295.378845,314.902161 297.267212,319.788239 301.698334,322.817352 
	C308.724640,327.620605 320.175964,327.645630 327.342072,319.955444 
	C330.653290,316.402069 332.326019,317.980743 335.055054,320.410645 
	C338.367676,323.360138 336.367767,324.881470 334.399170,327.203033 
	C324.930939,338.369049 309.470917,337.433075 299.771454,334.105713 
	C289.300079,330.513519 280.955719,318.624359 280.908783,304.936340 
	C280.880524,296.686646 281.355072,288.680176 285.330475,281.274780 
	C286.387054,279.306580 287.787659,277.523132 289.237366,275.349304 
z"/>
<path fill="#FFFFFE" opacity="1.000000" stroke="none" 
	d="
M149.000000,301.000000 
	C149.000015,290.678619 149.131882,280.854462 148.924454,271.037445 
	C148.857025,267.846130 149.629135,266.415894 152.967087,266.976135 
	C153.938522,267.139191 154.982651,267.136993 155.955460,266.978027 
	C160.419449,266.248657 161.611374,268.522400 160.840500,273.167175 
	C169.413803,265.776611 178.803101,264.324524 188.862244,267.052307 
	C194.143692,268.484497 197.983994,272.081879 199.902679,277.162598 
	C201.437180,281.226044 202.136932,285.522278 202.071213,290.005981 
	C201.873627,303.486664 201.859146,316.974579 202.093033,330.454102 
	C202.156296,334.099457 201.373703,335.723541 197.539017,335.031006 
	C196.410553,334.827240 195.195908,334.866577 194.052246,335.023743 
	C190.119141,335.564148 188.849396,334.021088 188.912857,330.006439 
	C189.136520,315.860535 189.006378,301.708923 188.997147,287.559479 
	C188.992294,280.095001 182.672684,274.563995 175.369308,276.075836 
	C167.352692,277.735382 160.139236,283.217957 160.796768,293.095886 
	C161.635208,305.691345 160.873581,318.387024 161.085205,331.034760 
	C161.140991,334.368958 160.154312,335.143341 156.960373,335.080078 
	C149.003250,334.922668 149.000015,335.086456 149.000000,326.969025 
	C149.000000,318.479340 149.000000,309.989685 149.000000,301.000000 
z"/>
<path fill="#FFFFFE" opacity="1.000000" stroke="none" 
	d="
M219.482651,280.030579 
	C224.054932,270.871674 230.941772,266.299011 240.947617,265.916962 
	C250.148209,265.565643 258.452393,266.900513 264.868652,274.292175 
	C266.179871,275.802704 267.171692,277.399231 268.071350,279.140656 
	C269.516266,281.937531 270.138733,286.103485 268.346619,287.353302 
	C265.761169,289.156372 261.659607,288.214355 258.234619,287.648193 
	C257.730652,287.564880 257.321747,286.413849 257.016724,285.694153 
	C252.863113,275.893127 243.204071,272.987030 234.340393,278.994171 
	C231.780991,280.728760 230.721573,283.439362 231.045410,286.464539 
	C231.446289,290.209412 234.371796,291.892059 237.450012,292.942078 
	C243.951187,295.159790 250.767044,296.287567 257.181213,298.924713 
	C266.245544,302.651398 270.939880,308.000916 270.034576,317.640808 
	C269.264038,325.845276 266.046875,331.595734 255.954559,334.384369 
	C245.438187,337.290192 234.695312,337.850830 225.087601,330.982513 
	C220.153259,327.455109 217.587997,322.255493 216.068359,316.564178 
	C215.522247,314.518890 216.467224,312.985046 218.932831,312.998779 
	C221.431564,313.012726 223.930496,313.019043 226.429184,313.003998 
	C227.797409,312.995789 228.944275,313.778595 228.898666,314.947205 
	C228.570999,323.346069 235.172134,324.403625 240.828659,325.772888 
	C245.061249,326.797485 249.729568,326.175964 253.517685,323.803070 
	C256.448547,321.967133 258.903870,318.981140 257.902344,315.113617 
	C256.678192,310.386719 252.771454,308.175232 248.367889,307.047882 
	C243.713440,305.856262 239.049973,304.853363 234.481262,303.218781 
	C221.526917,298.583954 217.654099,294.844666 219.482651,280.030579 
z"/>
<path fill="#FFFFFE" opacity="1.000000" stroke="none" 
	d="
M385.000000,334.999664 
	C375.168823,334.999634 365.835541,334.889618 356.507690,335.066193 
	C353.680176,335.119690 352.926117,334.317688 352.936676,331.494568 
	C353.041382,303.501404 353.040558,275.507507 352.937439,247.514328 
	C352.927094,244.707611 353.658875,243.922653 356.495331,243.922440 
	C365.000000,243.921799 365.000000,243.783829 365.000000,252.502457 
	C365.000000,275.163910 365.097046,297.826202 364.903229,320.486023 
	C364.871399,324.207489 365.737518,325.190887 369.500122,325.101379 
	C381.157501,324.824097 392.832092,325.224060 404.486511,324.890350 
	C409.185211,324.755829 407.969025,327.617920 407.965210,329.996735 
	C407.961426,332.369019 409.208466,335.396332 404.489441,335.098206 
	C398.182709,334.699707 391.831879,334.999634 385.000000,334.999664 
z"/>
<path fill="#FFFFFE" opacity="1.000000" stroke="none" 
	d="
M451.016296,288.811859 
	C448.912537,282.364502 447.085266,276.214783 444.626984,270.328583 
	C443.324493,267.209869 444.344360,267.054321 446.937958,266.961639 
	C456.258850,266.628632 457.341522,267.683655 460.047119,276.996826 
	C463.122375,287.582306 466.736176,298.011322 470.112579,308.509399 
	C470.885956,310.914154 471.645721,313.323303 472.642609,316.455780 
	C475.776093,310.238495 477.017487,303.955841 478.992950,297.948181 
	C482.141235,288.374023 485.222626,278.777832 488.386627,269.208954 
	C488.855072,267.792145 489.605804,266.690033 491.561157,266.944275 
	C493.525513,267.199707 495.562653,267.148499 497.543488,266.966339 
	C500.771240,266.669464 501.767029,267.820221 500.628387,270.910370 
	C495.763947,284.111816 490.890442,297.310364 486.124573,310.547516 
	C483.637268,317.455902 481.282715,324.415344 479.041046,331.407166 
	C478.201782,334.024963 476.726990,335.233765 474.018372,335.002594 
	C471.323792,334.772552 468.391815,336.041748 466.927460,331.930328 
	C461.831085,317.621063 456.359497,303.445435 451.016296,288.811859 
z"/>
<path fill="#FFFFFE" opacity="1.000000" stroke="none" 
	d="
M433.000122,285.002258 
	C433.000122,300.157227 432.839233,314.815460 433.098114,329.466278 
	C433.175781,333.861420 431.919861,335.289917 427.483948,335.096497 
	C420.011108,334.770660 419.999908,335.027222 419.999908,327.489624 
	C419.999908,308.670746 420.077148,289.851288 419.925140,271.033630 
	C419.899261,267.835144 420.643463,266.448181 423.975891,266.967987 
	C425.276550,267.170898 426.655579,267.150574 427.963867,266.973297 
	C431.926636,266.436340 433.373627,268.010010 433.069885,272.017578 
	C432.756165,276.157257 433.000122,280.339233 433.000122,285.002258 
z"/>
<path fill="#FFFFFE" opacity="1.000000" stroke="none" 
	d="
M425.296356,242.012299 
	C432.309265,241.548264 436.002045,248.409149 432.325714,254.065109 
	C430.861176,256.318176 428.211731,257.727417 425.500732,256.886078 
	C422.856445,256.065430 420.559357,254.717270 419.557678,251.360947 
	C418.580780,248.087646 420.063904,246.108337 421.630066,244.002350 
	C422.333344,243.056610 423.782715,242.665665 425.296356,242.012299 
z"/>
<path fill="#000000" opacity="1.000000" stroke="none" 
	d="
M526.242432,281.266052 
	C532.993835,275.111542 538.678467,275.127686 546.072266,278.054108 
	C549.063049,279.237823 553.087769,288.565308 553.067688,292.831940 
	C553.053955,295.734436 551.188660,294.973419 549.717834,294.979462 
	C540.061096,295.019135 530.404236,294.999908 520.378601,294.999908 
	C521.618591,290.107513 522.469849,285.301758 526.242432,281.266052 
z"/>
<path fill="#000000" opacity="1.000000" stroke="none" 
	d="
M108.874237,276.001099 
	C119.367233,276.974670 122.045937,284.398987 123.884186,292.619171 
	C124.398590,294.919403 123.184135,295.025085 121.461166,295.018402 
	C111.484688,294.979645 101.507988,294.999451 91.519783,294.999451 
	C92.361633,281.591827 100.522606,276.460358 108.874237,276.001099 
z"/>
<path fill="#000000" opacity="1.000000" stroke="none" 
	d="
M293.744690,293.668091 
	C295.360168,284.905212 299.244598,278.671112 308.082245,276.337402 
	C314.605164,274.614929 321.872711,278.273224 324.014771,284.700134 
	C324.266144,285.454437 324.717590,286.142303 324.966370,286.897156 
	C327.465546,294.480591 327.076752,295.000000 318.985229,295.000000 
	C311.340393,295.000031 303.695160,295.035248 296.051300,294.948853 
	C295.230164,294.939575 293.766083,295.902405 293.744690,293.668091 
z"/>
</svg>